<svg width="5" height="17" viewBox="0 0 5 17" fill="none" xmlns="http://www.w3.org/2000/svg">
<path d="M1.03516 13.2852C1.45833 12.862 1.94661 12.6504 2.5 12.6504C3.05339 12.6504 3.54167 12.862 3.96484 13.2852C4.38802 13.7083 4.59961 14.1966 4.59961 14.75C4.59961 15.3034 4.38802 15.7917 3.96484 16.2148C3.54167 16.638 3.05339 16.8496 2.5 16.8496C1.94661 16.8496 1.45833 16.638 1.03516 16.2148C0.611979 15.7917 0.400391 15.3034 0.400391 14.75C0.400391 14.1966 0.611979 13.7083 1.03516 13.2852ZM1.03516 7.03516C1.45833 6.61198 1.94661 6.40039 2.5 6.40039C3.05339 6.40039 3.54167 6.61198 3.96484 7.03516C4.38802 7.45833 4.59961 7.94661 4.59961 8.5C4.59961 9.05339 4.38802 9.54167 3.96484 9.96484C3.54167 10.388 3.05339 10.5996 2.5 10.5996C1.94661 10.5996 1.45833 10.388 1.03516 9.96484C0.611979 9.54167 0.400391 9.05339 0.400391 8.5C0.400391 7.94661 0.611979 7.45833 1.03516 7.03516ZM3.96484 3.71484C3.54167 4.13802 3.05339 4.34961 2.5 4.34961C1.94661 4.34961 1.45833 4.13802 1.03516 3.71484C0.611979 3.29167 0.400391 2.80339 0.400391 2.25C0.400391 1.69661 0.611979 1.20833 1.03516 0.785156C1.45833 0.361979 1.94661 0.150391 2.5 0.150391C3.05339 0.150391 3.54167 0.361979 3.96484 0.785156C4.38802 1.20833 4.59961 1.69661 4.59961 2.25C4.59961 2.80339 4.38802 3.29167 3.96484 3.71484Z" fill="white"/>
</svg>
