<svg width="153" height="51" viewBox="0 0 153 51" fill="none" xmlns="http://www.w3.org/2000/svg">
<rect width="10" height="8.72727" rx="4.36364" fill="#FA4659"/>
<rect y="13.0909" width="10" height="8.72727" rx="1" fill="#79D1C3"/>
<rect y="26.1818" width="10" height="8.72727" rx="1" fill="#79D1C3"/>
<rect x="15" width="10" height="8.72727" rx="1" fill="#79D1C3"/>
<rect x="15" y="13.0909" width="10" height="8.72727" rx="1" fill="#79D1C3"/>
<rect x="15" y="26.1818" width="10" height="8.72727" rx="1" fill="#79D1C3"/>
<rect x="30" width="10" height="8.72727" rx="1" fill="#79D1C3"/>
<rect y="39.2727" width="10" height="8.72727" rx="1" fill="#79D1C3"/>
<rect x="15" y="39.2727" width="10" height="8.72727" rx="1" fill="#79D1C3"/>
<rect x="30" y="26.1818" width="10" height="8.72727" rx="1" fill="#79D1C3"/>
<path d="M53.3789 37.0547H65.918L65.2148 41H47.8711L52.8125 12.5625H57.6367L53.3789 37.0547ZM78.2031 41.3906C76.3672 41.3516 74.7721 40.8893 73.418 40.0039C72.0768 39.1185 71.0807 37.9076 70.4297 36.3711C69.7917 34.8346 69.5508 33.1224 69.707 31.2344L69.7656 30.4336C70 28.2852 70.625 26.3581 71.6406 24.6523C72.6693 22.9336 73.9453 21.6315 75.4688 20.7461C76.9922 19.8607 78.6458 19.4375 80.4297 19.4766C83.0729 19.5286 85.0521 20.5117 86.3672 22.4258C87.6953 24.3398 88.1966 26.8333 87.8711 29.9062L87.5977 31.9375H74.2969C74.1797 33.6172 74.5182 34.9714 75.3125 36C76.1068 37.0286 77.2005 37.556 78.5938 37.582C80.5859 37.6471 82.4219 36.7812 84.1016 34.9844L86.4453 37.4453C85.5599 38.7083 84.3945 39.6914 82.9492 40.3945C81.5039 41.0846 79.9219 41.4167 78.2031 41.3906ZM80.1758 23.2656C77.7279 23.1875 75.8919 24.9193 74.668 28.4609L83.4375 28.4805L83.5156 28.0703C83.6068 27.4714 83.6133 26.8854 83.5352 26.3125C83.3919 25.388 83.0273 24.6589 82.4414 24.125C81.8555 23.5911 81.1003 23.3047 80.1758 23.2656ZM102.207 41C102.051 40.4792 101.986 39.8216 102.012 39.0273C100.267 40.6549 98.3854 41.4427 96.3672 41.3906C94.5312 41.3646 93.0078 40.7786 91.7969 39.6328C90.599 38.474 90.0391 37.0091 90.1172 35.2383C90.2214 33.0117 91.1849 31.2604 93.0078 29.9844C94.8307 28.7083 97.2786 28.0703 100.352 28.0703L103.359 28.1094L103.633 26.6641C103.711 26.1562 103.711 25.681 103.633 25.2383C103.372 23.832 102.441 23.1094 100.84 23.0703C99.8503 23.0443 98.9779 23.2982 98.2227 23.832C97.4805 24.3529 97.0247 25.056 96.8555 25.9414L92.2266 25.9805C92.3177 24.6784 92.7799 23.5391 93.6133 22.5625C94.4466 21.5729 95.5534 20.8047 96.9336 20.2578C98.3138 19.7109 99.7721 19.4505 101.309 19.4766C103.613 19.5286 105.41 20.2253 106.699 21.5664C107.988 22.8945 108.522 24.6198 108.301 26.7422L106.68 36.6445L106.523 38.4023C106.484 39.1706 106.582 39.9193 106.816 40.6484L106.797 41H102.207ZM97.4414 37.6016C98.418 37.6276 99.3229 37.4062 100.156 36.9375C100.99 36.4557 101.699 35.8372 102.285 35.082L103.008 31.0781L100.801 31.0586C99.056 31.0586 97.6628 31.3906 96.6211 32.0547C95.5794 32.7057 94.987 33.6042 94.8438 34.75C94.7396 35.6224 94.9284 36.3125 95.4102 36.8203C95.9049 37.3151 96.582 37.5755 97.4414 37.6016ZM111.875 30.4141C112.135 28.2396 112.721 26.2865 113.633 24.5547C114.544 22.8229 115.671 21.5339 117.012 20.6875C118.353 19.8281 119.844 19.418 121.484 19.457C123.633 19.5091 125.312 20.3099 126.523 21.8594L128.555 11H133.203L127.988 41H123.848L124.16 38.8125C122.52 40.5964 120.592 41.4622 118.379 41.4102C116.413 41.3841 114.837 40.6289 113.652 39.1445C112.48 37.6471 111.849 35.6615 111.758 33.1875C111.719 32.3802 111.738 31.5924 111.816 30.8242L111.875 30.4141ZM116.367 32.2305C116.276 33.8451 116.523 35.1276 117.109 36.0781C117.708 37.0286 118.594 37.5169 119.766 37.543C121.549 37.5951 123.092 36.7292 124.395 34.9453L125.977 25.8633C125.365 24.2357 124.18 23.3958 122.422 23.3438C120.651 23.2917 119.225 24.0729 118.145 25.6875C117.064 27.3021 116.471 29.4831 116.367 32.2305ZM145.605 35.1406C145.827 33.8516 144.987 32.9596 143.086 32.4648C141.198 31.957 139.909 31.5534 139.219 31.2539C136.536 30.1081 135.241 28.3633 135.332 26.0195C135.397 24.1185 136.257 22.5495 137.91 21.3125C139.577 20.0625 141.569 19.4505 143.887 19.4766C146.126 19.5026 147.949 20.1341 149.355 21.3711C150.775 22.6081 151.471 24.2292 151.445 26.2344L146.855 26.2148C146.882 25.2383 146.615 24.4766 146.055 23.9297C145.495 23.3698 144.727 23.0768 143.75 23.0508C142.721 23.0508 141.836 23.3047 141.094 23.8125C140.365 24.3203 139.941 24.9844 139.824 25.8047C139.642 26.9896 140.475 27.8164 142.324 28.2852C144.173 28.7409 145.54 29.1641 146.426 29.5547C149.004 30.6875 150.247 32.4583 150.156 34.8672C150.091 36.2083 149.648 37.3802 148.828 38.3828C148.021 39.3724 146.934 40.1341 145.566 40.668C144.199 41.1888 142.747 41.4297 141.211 41.3906C138.906 41.3646 136.992 40.694 135.469 39.3789C133.958 38.0638 133.216 36.3776 133.242 34.3203L137.715 34.3398C137.741 35.4727 138.079 36.332 138.73 36.918C139.382 37.5039 140.273 37.8034 141.406 37.8164C142.552 37.8164 143.503 37.582 144.258 37.1133C145.026 36.6315 145.475 35.974 145.605 35.1406Z" fill="#79D1C3"/>
</svg>
